<svg xmlns="http://www.w3.org/2000/svg" version="1.1" xmlns:xlink="http://www.w3.org/1999/xlink" width="200" height="200"><svg xmlns="http://www.w3.org/2000/svg" version="1.1" xmlns:xlink="http://www.w3.org/1999/xlink" viewBox="0 0 200 200"><rect width="200" height="200" fill="url('#gradient')"></rect><defs><linearGradient id="SvgjsLinearGradient1001" gradientTransform="rotate(45 0.5 0.5)"><stop offset="0%" stop-color="#f5f5f5"></stop><stop offset="100%" stop-color="#f5f5f5"></stop></linearGradient></defs><g><g fill="#1c1f20" transform="matrix(2.0131061598951505,0,0,2.0131061598951505,9.290843588496578,114.89932894675478)" stroke="#a8dc9f" stroke-width="0"><path d="M12.24-14.22L12.24-11.57L7.97-11.57L7.97 0L4.54 0L4.54-11.57L0.35-11.57L0.35-14.22L12.24-14.22ZM17.77 0.20L17.77 0.20Q15.34 0.20 13.84-1.25Q12.33-2.71 12.33-5.03L12.33-5.03L12.33-5.30Q12.33-6.92 12.93-8.16Q13.54-9.40 14.69-10.08Q15.84-10.76 17.42-10.76L17.42-10.76Q19.65-10.76 20.94-9.38Q22.23-8.00 22.23-5.53L22.23-5.53L22.23-4.25L15.68-4.25Q15.86-3.36 16.46-2.85Q17.05-2.34 18.00-2.34L18.00-2.34Q19.56-2.34 20.44-3.44L20.44-3.44L21.94-1.66Q21.33-0.81 20.20-0.31Q19.07 0.20 17.77 0.20ZM17.40-8.22L17.40-8.22Q15.96-8.22 15.68-6.31L15.68-6.31L19.00-6.31L19.00-6.56Q19.02-7.35 18.60-7.79Q18.18-8.22 17.40-8.22ZM30-10.64L29.94-7.59L28.86-7.67Q27.30-7.67 26.87-6.69L26.87-6.69L26.87 0L23.57 0L23.57-10.57L26.66-10.57L26.77-9.21Q27.60-10.76 29.08-10.76L29.08-10.76Q29.61-10.76 30-10.64L30-10.64ZM37.56-7.40L37.56-4.85L31.69-4.85L31.69-7.40L37.56-7.40ZM40.06-10.57L43.14-10.57L43.25-9.33Q44.35-10.76 46.27-10.76L46.27-10.76Q47.92-10.76 48.74-9.78Q49.55-8.79 49.58-6.81L49.58-6.81L49.58 0L46.28 0L46.28-6.67Q46.28-7.47 45.96-7.85Q45.63-8.22 44.79-8.22L44.79-8.22Q43.82-8.22 43.35-7.46L43.35-7.46L43.35 0L40.06 0L40.06-10.57ZM51.00-4.82L50.99-5.38Q50.99-6.96 51.60-8.20Q52.22-9.43 53.37-10.10Q54.52-10.76 56.07-10.76L56.07-10.76Q58.45-10.76 59.81-9.29Q61.18-7.82 61.18-5.29L61.18-5.29L61.18-5.18Q61.18-2.71 59.81-1.25Q58.44 0.20 56.09 0.20L56.09 0.20Q53.84 0.20 52.47-1.16Q51.10-2.51 51.00-4.82L51.00-4.82ZM54.29-5.77L54.28-5.18Q54.28-3.71 54.74-3.03Q55.20-2.34 56.09-2.34L56.09-2.34Q57.85-2.34 57.89-5.05L57.89-5.05L57.89-5.38Q57.89-8.22 56.07-8.22L56.07-8.22Q54.42-8.22 54.29-5.77L54.29-5.77ZM63.17-13.19L66.46-13.19L66.46-10.57L68.20-10.57L68.20-8.28L66.46-8.28L66.46-3.45Q66.46-2.85 66.68-2.62Q66.89-2.38 67.53-2.38L67.53-2.38Q68.02-2.38 68.35-2.44L68.35-2.44L68.35-0.09Q67.46 0.20 66.49 0.20L66.49 0.20Q64.79 0.20 63.98-0.61Q63.17-1.41 63.17-3.04L63.17-3.04L63.17-8.28L61.83-8.28L61.83-10.57L63.17-10.57L63.17-13.19ZM74.61 0.20L74.61 0.20Q72.18 0.20 70.67-1.25Q69.17-2.71 69.17-5.03L69.17-5.03L69.17-5.30Q69.17-6.92 69.77-8.16Q70.37-9.40 71.52-10.08Q72.68-10.76 74.26-10.76L74.26-10.76Q76.48-10.76 77.77-9.38Q79.06-8.00 79.06-5.53L79.06-5.53L79.06-4.25L72.52-4.25Q72.70-3.36 73.29-2.85Q73.89-2.34 74.83-2.34L74.83-2.34Q76.40-2.34 77.28-3.44L77.28-3.44L78.78-1.66Q78.16-0.81 77.04-0.31Q75.91 0.20 74.61 0.20ZM74.24-8.22L74.24-8.22Q72.79-8.22 72.52-6.31L72.52-6.31L75.84-6.31L75.84-6.56Q75.86-7.35 75.44-7.79Q75.02-8.22 74.24-8.22ZM79.97-5.36L79.97-5.36Q79.97-7.87 81.05-9.32Q82.14-10.76 84.08-10.76L84.08-10.76Q85.50-10.76 86.46-9.65L86.46-9.65L86.46-15L89.77-15L89.77 0L86.81 0L86.64-1.13Q85.63 0.20 84.06 0.20L84.06 0.20Q82.18 0.20 81.07-1.25Q79.97-2.70 79.97-5.36ZM83.27-5.76L83.26-5.16Q83.26-2.34 84.90-2.34L84.90-2.34Q86.00-2.34 86.46-3.26L86.46-3.26L86.46-7.29Q86.02-8.22 84.92-8.22L84.92-8.22Q83.40-8.22 83.27-5.76L83.27-5.76Z"></path></g></g></svg><style>@media (prefers-color-scheme: light) { :root { filter: none; } }
@media (prefers-color-scheme: dark) { :root { filter: none; } }
</style></svg>